<mxfile host="app.diagrams.net" modified="2024-04-04T08:21:52.175Z" agent="Mozilla/5.0 (Windows NT 10.0; Win64; x64) AppleWebKit/537.36 (KHTML, like Gecko) Chrome/123.0.0.0 Safari/537.36" etag="WBiD_cJx_2On9sCMQZWl" version="24.2.2" type="device">
  <diagram name="PÃ¡gina-1" id="RrpGZ81u7sjzvxTYh_N2">
    <mxGraphModel dx="989" dy="514" grid="1" gridSize="10" guides="1" tooltips="1" connect="1" arrows="1" fold="1" page="1" pageScale="1" pageWidth="827" pageHeight="1169" math="0" shadow="0">
      <root>
        <mxCell id="0" />
        <mxCell id="1" parent="0" />
        <mxCell id="2V15acwhdToJsvbggmJ_-3" value="&lt;span id=&quot;docs-internal-guid-c65d7418-7fff-1087-b515-32ff934a345a&quot;&gt;&lt;span style=&quot;font-size: 11pt; font-family: Arial, sans-serif; background-color: transparent; font-variant-numeric: normal; font-variant-east-asian: normal; font-variant-alternates: normal; font-variant-position: normal; vertical-align: baseline; white-space-collapse: preserve;&quot;&gt;USUARIO (&lt;/span&gt;&lt;span style=&quot;font-size: 11pt; font-family: Arial, sans-serif; background-color: transparent; font-weight: 700; font-variant-numeric: normal; font-variant-east-asian: normal; font-variant-alternates: normal; font-variant-position: normal; vertical-align: baseline; white-space-collapse: preserve;&quot;&gt;id_usuario&lt;/span&gt;&lt;span style=&quot;font-size: 11pt; font-family: Arial, sans-serif; background-color: transparent; font-variant-numeric: normal; font-variant-east-asian: normal; font-variant-alternates: normal; font-variant-position: normal; vertical-align: baseline; white-space-collapse: preserve;&quot;&gt;, nombre, apellidos, email, passwd, nickname, DNI, telefono, posicion)&lt;/span&gt;&lt;/span&gt;" style="text;strokeColor=none;fillColor=none;align=left;verticalAlign=middle;spacingLeft=4;spacingRight=4;overflow=hidden;points=[[0,0.5],[1,0.5]];portConstraint=eastwest;rotatable=0;whiteSpace=wrap;html=1;" vertex="1" parent="1">
          <mxGeometry x="130" y="80" width="620" height="30" as="geometry" />
        </mxCell>
        <mxCell id="2V15acwhdToJsvbggmJ_-4" value="" style="shape=image;html=1;verticalLabelPosition=bottom;verticalAlign=top;imageAspect=1;aspect=fixed;image=img/clipart/Gear_128x128.png" vertex="1" parent="1">
          <mxGeometry x="112.95" y="85" width="17.05" height="20" as="geometry" />
        </mxCell>
        <mxCell id="2V15acwhdToJsvbggmJ_-6" value="&lt;span id=&quot;docs-internal-guid-843cd96f-7fff-49b5-6227-f726829cd4c8&quot;&gt;&lt;span style=&quot;font-size: 11pt; font-family: Arial, sans-serif; background-color: transparent; font-variant-numeric: normal; font-variant-east-asian: normal; font-variant-alternates: normal; font-variant-position: normal; vertical-align: baseline; white-space-collapse: preserve;&quot;&gt;USUARIO_REGULAR (&lt;b&gt;id_usuario, &lt;/b&gt;&lt;u style=&quot;&quot;&gt;&lt;i style=&quot;&quot;&gt;id_usuario&lt;/i&gt;&lt;/u&gt;)&lt;/span&gt;&lt;/span&gt;" style="text;strokeColor=none;fillColor=none;align=left;verticalAlign=middle;spacingLeft=4;spacingRight=4;overflow=hidden;points=[[0,0.5],[1,0.5]];portConstraint=eastwest;rotatable=0;whiteSpace=wrap;html=1;" vertex="1" parent="1">
          <mxGeometry x="130" y="130" width="320" height="30" as="geometry" />
        </mxCell>
        <mxCell id="2V15acwhdToJsvbggmJ_-7" value="" style="shape=image;html=1;verticalLabelPosition=bottom;verticalAlign=top;imageAspect=1;aspect=fixed;image=img/clipart/Gear_128x128.png" vertex="1" parent="1">
          <mxGeometry x="112.95" y="135" width="17.05" height="20" as="geometry" />
        </mxCell>
        <mxCell id="2V15acwhdToJsvbggmJ_-8" value="&lt;span id=&quot;docs-internal-guid-843cd96f-7fff-49b5-6227-f726829cd4c8&quot;&gt;&lt;span style=&quot;font-size: 11pt; font-family: Arial, sans-serif; background-color: transparent; font-variant-numeric: normal; font-variant-east-asian: normal; font-variant-alternates: normal; font-variant-position: normal; vertical-align: baseline; white-space-collapse: preserve;&quot;&gt;USUARIO_CAPITAN (&lt;b&gt;id_usuario, &lt;/b&gt;&lt;u style=&quot;&quot;&gt;&lt;i style=&quot;&quot;&gt;id_usuario&lt;/i&gt;&lt;/u&gt;)&lt;/span&gt;&lt;/span&gt;" style="text;strokeColor=none;fillColor=none;align=left;verticalAlign=middle;spacingLeft=4;spacingRight=4;overflow=hidden;points=[[0,0.5],[1,0.5]];portConstraint=eastwest;rotatable=0;whiteSpace=wrap;html=1;" vertex="1" parent="1">
          <mxGeometry x="130" y="180" width="320" height="30" as="geometry" />
        </mxCell>
        <mxCell id="2V15acwhdToJsvbggmJ_-9" value="" style="shape=image;html=1;verticalLabelPosition=bottom;verticalAlign=top;imageAspect=1;aspect=fixed;image=img/clipart/Gear_128x128.png" vertex="1" parent="1">
          <mxGeometry x="112.95" y="185" width="17.05" height="20" as="geometry" />
        </mxCell>
        <mxCell id="2V15acwhdToJsvbggmJ_-10" value="&lt;span style=&quot;color: rgba(0, 0, 0, 0); font-family: monospace; font-size: 0px; text-wrap: nowrap;&quot;&gt;%3CmxGraphModel%3E%3Croot%3E%3CmxCell%20id%3D%220%22%2F%3E%3CmxCell%20id%3D%221%22%20parent%3D%220%22%2F%3E%3CmxCell%20id%3D%222%22%20value%3D%22%26lt%3Bspan%20id%3D%26quot%3Bdocs-internal-guid-c65d7418-7fff-1087-b515-32ff934a345a%26quot%3B%26gt%3B%26lt%3Bspan%20style%3D%26quot%3Bfont-size%3A%2011pt%3B%20font-family%3A%20Arial%2C%20sans-serif%3B%20background-color%3A%20transparent%3B%20font-variant-numeric%3A%20normal%3B%20font-variant-east-asian%3A%20normal%3B%20font-variant-alternates%3A%20normal%3B%20font-variant-position%3A%20normal%3B%20vertical-align%3A%20baseline%3B%20white-space-collapse%3A%20preserve%3B%26quot%3B%26gt%3BUSUARIO%20(%26lt%3B%2Fspan%26gt%3B%26lt%3Bspan%20style%3D%26quot%3Bfont-size%3A%2011pt%3B%20font-family%3A%20Arial%2C%20sans-serif%3B%20background-color%3A%20transparent%3B%20font-weight%3A%20700%3B%20font-variant-numeric%3A%20normal%3B%20font-variant-east-asian%3A%20normal%3B%20font-variant-alternates%3A%20normal%3B%20font-variant-position%3A%20normal%3B%20vertical-align%3A%20baseline%3B%20white-space-collapse%3A%20preserve%3B%26quot%3B%26gt%3Bid_usuario%26lt%3B%2Fspan%26gt%3B%26lt%3Bspan%20style%3D%26quot%3Bfont-size%3A%2011pt%3B%20font-family%3A%20Arial%2C%20sans-serif%3B%20background-color%3A%20transparent%3B%20font-variant-numeric%3A%20normal%3B%20font-variant-east-asian%3A%20normal%3B%20font-variant-alternates%3A%20normal%3B%20font-variant-position%3A%20normal%3B%20vertical-align%3A%20baseline%3B%20white-space-collapse%3A%20preserve%3B%26quot%3B%26gt%3B%2C%20nombre%2C%20apellidos%2C%20email%2C%20passwd%2C%20nickname%2C%20DNI%2C%20telefono%2C%20posicion)%26lt%3B%2Fspan%26gt%3B%26lt%3B%2Fspan%26gt%3B%22%20style%3D%22text%3BstrokeColor%3Dnone%3BfillColor%3Dnone%3Balign%3Dleft%3BverticalAlign%3Dmiddle%3BspacingLeft%3D4%3BspacingRight%3D4%3Boverflow%3Dhidden%3Bpoints%3D%5B%5B0%2C0.5%5D%2C%5B1%2C0.5%5D%5D%3BportConstraint%3Deastwest%3Brotatable%3D0%3BwhiteSpace%3Dwrap%3Bhtml%3D1%3B%22%20vertex%3D%221%22%20parent%3D%221%22%3E%3CmxGeometry%20x%3D%22130%22%20y%3D%2280%22%20width%3D%22620%22%20height%3D%2230%22%20as%3D%22geometry%22%2F%3E%3C%2FmxCell%3E%3C%2Froot%3E%3C%2FmxGraphModel%3E&lt;/span&gt;" style="text;strokeColor=none;fillColor=none;align=left;verticalAlign=middle;spacingLeft=4;spacingRight=4;overflow=hidden;points=[[0,0.5],[1,0.5]];portConstraint=eastwest;rotatable=0;whiteSpace=wrap;html=1;" vertex="1" parent="1">
          <mxGeometry x="130" y="230" width="630" height="40" as="geometry" />
        </mxCell>
        <mxCell id="2V15acwhdToJsvbggmJ_-11" value="&lt;span id=&quot;docs-internal-guid-77e92b00-7fff-6246-d6df-265483c7b0aa&quot;&gt;&lt;p style=&quot;line-height:1.38;text-align: justify;margin-top:0pt;margin-bottom:0pt;&quot; dir=&quot;ltr&quot;&gt;&lt;span style=&quot;font-size: 11pt; font-family: Arial, sans-serif; background-color: transparent; font-variant-numeric: normal; font-variant-east-asian: normal; font-variant-alternates: normal; font-variant-position: normal; vertical-align: baseline; white-space-collapse: preserve;&quot;&gt;EQUIPO (&lt;/span&gt;&lt;span style=&quot;font-size: 11pt; font-family: Arial, sans-serif; background-color: transparent; font-weight: 700; font-variant-numeric: normal; font-variant-east-asian: normal; font-variant-alternates: normal; font-variant-position: normal; vertical-align: baseline; white-space-collapse: preserve;&quot;&gt;id_equipo&lt;/span&gt;&lt;span style=&quot;font-size: 11pt; font-family: Arial, sans-serif; background-color: transparent; font-variant-numeric: normal; font-variant-east-asian: normal; font-variant-alternates: normal; font-variant-position: normal; vertical-align: baseline; white-space-collapse: preserve;&quot;&gt;, nombre, descripcion, estadio, localidad, &lt;/span&gt;&lt;span style=&quot;font-size: 11pt; font-family: Arial, sans-serif; background-color: transparent; font-style: italic; font-variant-numeric: normal; font-variant-east-asian: normal; font-variant-alternates: normal; font-variant-position: normal; text-decoration-line: underline; text-decoration-skip-ink: none; vertical-align: baseline; white-space-collapse: preserve;&quot;&gt;id_usuario_capitan&lt;/span&gt;&lt;span style=&quot;font-size: 11pt; font-family: Arial, sans-serif; background-color: transparent; font-variant-numeric: normal; font-variant-east-asian: normal; font-variant-alternates: normal; font-variant-position: normal; vertical-align: baseline; white-space-collapse: preserve;&quot;&gt;)&lt;/span&gt;&lt;/p&gt;&lt;div&gt;&lt;span style=&quot;font-size: 11pt; font-family: Arial, sans-serif; background-color: transparent; font-variant-numeric: normal; font-variant-east-asian: normal; font-variant-alternates: normal; font-variant-position: normal; vertical-align: baseline; white-space-collapse: preserve;&quot;&gt;&lt;br&gt;&lt;/span&gt;&lt;/div&gt;&lt;/span&gt;" style="text;strokeColor=none;fillColor=none;align=left;verticalAlign=middle;spacingLeft=4;spacingRight=4;overflow=hidden;points=[[0,0.5],[1,0.5]];portConstraint=eastwest;rotatable=0;whiteSpace=wrap;html=1;" vertex="1" parent="1">
          <mxGeometry x="130" y="235" width="620" height="30" as="geometry" />
        </mxCell>
        <mxCell id="2V15acwhdToJsvbggmJ_-12" value="" style="shape=image;html=1;verticalLabelPosition=bottom;verticalAlign=top;imageAspect=1;aspect=fixed;image=img/clipart/Gear_128x128.png" vertex="1" parent="1">
          <mxGeometry x="112.95" y="240" width="17.05" height="20" as="geometry" />
        </mxCell>
        <mxCell id="2V15acwhdToJsvbggmJ_-14" value="&lt;span id=&quot;docs-internal-guid-77e92b00-7fff-6246-d6df-265483c7b0aa&quot;&gt;&lt;p style=&quot;line-height:1.38;text-align: justify;margin-top:0pt;margin-bottom:0pt;&quot; dir=&quot;ltr&quot;&gt;&lt;span id=&quot;docs-internal-guid-07ce9694-7fff-fec5-a1c9-a81a64ae8eed&quot;&gt;&lt;span style=&quot;font-size: 11pt; font-family: Arial, sans-serif; background-color: transparent; font-variant-numeric: normal; font-variant-east-asian: normal; font-variant-alternates: normal; font-variant-position: normal; vertical-align: baseline; white-space-collapse: preserve;&quot;&gt;PARTIDO (&lt;/span&gt;&lt;span style=&quot;font-size: 11pt; font-family: Arial, sans-serif; background-color: transparent; font-weight: 700; font-variant-numeric: normal; font-variant-east-asian: normal; font-variant-alternates: normal; font-variant-position: normal; vertical-align: baseline; white-space-collapse: preserve;&quot;&gt;id_partido&lt;/span&gt;&lt;span style=&quot;font-size: 11pt; font-family: Arial, sans-serif; background-color: transparent; font-variant-numeric: normal; font-variant-east-asian: normal; font-variant-alternates: normal; font-variant-position: normal; vertical-align: baseline; white-space-collapse: preserve;&quot;&gt;, &lt;/span&gt;&lt;span style=&quot;font-size: 11pt; font-family: Arial, sans-serif; background-color: transparent; font-style: italic; font-variant-numeric: normal; font-variant-east-asian: normal; font-variant-alternates: normal; font-variant-position: normal; text-decoration-line: underline; text-decoration-skip-ink: none; vertical-align: baseline; white-space-collapse: preserve;&quot;&gt;equipo_local&lt;/span&gt;&lt;span style=&quot;font-size: 11pt; font-family: Arial, sans-serif; background-color: transparent; font-variant-numeric: normal; font-variant-east-asian: normal; font-variant-alternates: normal; font-variant-position: normal; vertical-align: baseline; white-space-collapse: preserve;&quot;&gt;, &lt;/span&gt;&lt;span style=&quot;font-size: 11pt; font-family: Arial, sans-serif; background-color: transparent; font-style: italic; font-variant-numeric: normal; font-variant-east-asian: normal; font-variant-alternates: normal; font-variant-position: normal; text-decoration-line: underline; text-decoration-skip-ink: none; vertical-align: baseline; white-space-collapse: preserve;&quot;&gt;equipo_visitante&lt;/span&gt;&lt;span style=&quot;font-size: 11pt; font-family: Arial, sans-serif; background-color: transparent; font-variant-numeric: normal; font-variant-east-asian: normal; font-variant-alternates: normal; font-variant-position: normal; vertical-align: baseline; white-space-collapse: preserve;&quot;&gt;, ubicacion, resultado, resumen, &lt;/span&gt;&lt;span style=&quot;font-size: 11pt; font-family: Arial, sans-serif; background-color: transparent; font-style: italic; font-variant-numeric: normal; font-variant-east-asian: normal; font-variant-alternates: normal; font-variant-position: normal; text-decoration-line: underline; text-decoration-skip-ink: none; vertical-align: baseline; white-space-collapse: preserve;&quot;&gt;usuario_creador&lt;/span&gt;&lt;span style=&quot;font-size: 11pt; font-family: Arial, sans-serif; background-color: transparent; font-variant-numeric: normal; font-variant-east-asian: normal; font-variant-alternates: normal; font-variant-position: normal; vertical-align: baseline; white-space-collapse: preserve;&quot;&gt;)&lt;/span&gt;&lt;/span&gt;&lt;br&gt;&lt;/p&gt;&lt;/span&gt;" style="text;strokeColor=none;fillColor=none;align=left;verticalAlign=middle;spacingLeft=4;spacingRight=4;overflow=hidden;points=[[0,0.5],[1,0.5]];portConstraint=eastwest;rotatable=0;whiteSpace=wrap;html=1;" vertex="1" parent="1">
          <mxGeometry x="130" y="290" width="690" height="30" as="geometry" />
        </mxCell>
        <mxCell id="2V15acwhdToJsvbggmJ_-15" value="" style="shape=image;html=1;verticalLabelPosition=bottom;verticalAlign=top;imageAspect=1;aspect=fixed;image=img/clipart/Gear_128x128.png" vertex="1" parent="1">
          <mxGeometry x="112.95" y="295" width="17.05" height="20" as="geometry" />
        </mxCell>
        <mxCell id="2V15acwhdToJsvbggmJ_-16" value="&lt;span id=&quot;docs-internal-guid-77e92b00-7fff-6246-d6df-265483c7b0aa&quot;&gt;&lt;p style=&quot;line-height:1.38;text-align: justify;margin-top:0pt;margin-bottom:0pt;&quot; dir=&quot;ltr&quot;&gt;&lt;span id=&quot;docs-internal-guid-e4df46f1-7fff-a1cd-e2ec-fded44c88054&quot;&gt;&lt;span style=&quot;font-size: 11pt; font-family: Arial, sans-serif; background-color: transparent; font-variant-numeric: normal; font-variant-east-asian: normal; font-variant-alternates: normal; font-variant-position: normal; vertical-align: baseline; white-space-collapse: preserve;&quot;&gt;GOL (&lt;/span&gt;&lt;span style=&quot;font-size: 11pt; font-family: Arial, sans-serif; background-color: transparent; font-weight: 700; font-variant-numeric: normal; font-variant-east-asian: normal; font-variant-alternates: normal; font-variant-position: normal; vertical-align: baseline; white-space-collapse: preserve;&quot;&gt;id_gol&lt;/span&gt;&lt;span style=&quot;font-size: 11pt; font-family: Arial, sans-serif; background-color: transparent; font-variant-numeric: normal; font-variant-east-asian: normal; font-variant-alternates: normal; font-variant-position: normal; vertical-align: baseline; white-space-collapse: preserve;&quot;&gt;, &lt;/span&gt;&lt;span style=&quot;font-size: 11pt; font-family: Arial, sans-serif; background-color: transparent; font-style: italic; font-variant-numeric: normal; font-variant-east-asian: normal; font-variant-alternates: normal; font-variant-position: normal; text-decoration-line: underline; text-decoration-skip-ink: none; vertical-align: baseline; white-space-collapse: preserve;&quot;&gt;id_asistente&lt;/span&gt;&lt;span style=&quot;font-size: 11pt; font-family: Arial, sans-serif; background-color: transparent; font-variant-numeric: normal; font-variant-east-asian: normal; font-variant-alternates: normal; font-variant-position: normal; vertical-align: baseline; white-space-collapse: preserve;&quot;&gt;, &lt;/span&gt;&lt;span style=&quot;font-size: 11pt; font-family: Arial, sans-serif; background-color: transparent; font-style: italic; font-variant-numeric: normal; font-variant-east-asian: normal; font-variant-alternates: normal; font-variant-position: normal; text-decoration-line: underline; text-decoration-skip-ink: none; vertical-align: baseline; white-space-collapse: preserve;&quot;&gt;id_usuario_goleador&lt;/span&gt;&lt;span style=&quot;font-size: 11pt; font-family: Arial, sans-serif; background-color: transparent; font-variant-numeric: normal; font-variant-east-asian: normal; font-variant-alternates: normal; font-variant-position: normal; vertical-align: baseline; white-space-collapse: preserve;&quot;&gt;, &lt;/span&gt;&lt;span style=&quot;font-size: 11pt; font-family: Arial, sans-serif; background-color: transparent; font-style: italic; font-variant-numeric: normal; font-variant-east-asian: normal; font-variant-alternates: normal; font-variant-position: normal; text-decoration-line: underline; text-decoration-skip-ink: none; vertical-align: baseline; white-space-collapse: preserve;&quot;&gt;id_partido&lt;/span&gt;&lt;span style=&quot;font-size: 11pt; font-family: Arial, sans-serif; background-color: transparent; font-variant-numeric: normal; font-variant-east-asian: normal; font-variant-alternates: normal; font-variant-position: normal; vertical-align: baseline; white-space-collapse: preserve;&quot;&gt;)&lt;/span&gt;&lt;/span&gt;&lt;br&gt;&lt;/p&gt;&lt;/span&gt;" style="text;strokeColor=none;fillColor=none;align=left;verticalAlign=middle;spacingLeft=4;spacingRight=4;overflow=hidden;points=[[0,0.5],[1,0.5]];portConstraint=eastwest;rotatable=0;whiteSpace=wrap;html=1;" vertex="1" parent="1">
          <mxGeometry x="130" y="350" width="690" height="30" as="geometry" />
        </mxCell>
        <mxCell id="2V15acwhdToJsvbggmJ_-17" value="" style="shape=image;html=1;verticalLabelPosition=bottom;verticalAlign=top;imageAspect=1;aspect=fixed;image=img/clipart/Gear_128x128.png" vertex="1" parent="1">
          <mxGeometry x="112.95" y="355" width="17.05" height="20" as="geometry" />
        </mxCell>
        <mxCell id="2V15acwhdToJsvbggmJ_-20" value="" style="edgeStyle=segmentEdgeStyle;endArrow=none;html=1;curved=0;rounded=0;endSize=8;startSize=8;endFill=0;strokeColor=#00FF00;" edge="1" parent="1">
          <mxGeometry width="50" height="50" relative="1" as="geometry">
            <mxPoint x="410" y="120" as="sourcePoint" />
            <mxPoint x="780" y="120" as="targetPoint" />
          </mxGeometry>
        </mxCell>
        <mxCell id="2V15acwhdToJsvbggmJ_-21" value="" style="edgeStyle=segmentEdgeStyle;endArrow=none;html=1;curved=0;rounded=0;endSize=8;startSize=8;endFill=0;strokeColor=#00FF00;" edge="1" parent="1">
          <mxGeometry width="50" height="50" relative="1" as="geometry">
            <mxPoint x="780" y="110" as="sourcePoint" />
            <mxPoint x="258.0952380952381" y="70" as="targetPoint" />
            <Array as="points">
              <mxPoint x="780" y="120" />
              <mxPoint x="780" />
            </Array>
          </mxGeometry>
        </mxCell>
        <mxCell id="2V15acwhdToJsvbggmJ_-22" value="" style="edgeStyle=segmentEdgeStyle;endArrow=classic;html=1;curved=0;rounded=0;endSize=8;startSize=8;entryX=0.194;entryY=0.025;entryDx=0;entryDy=0;entryPerimeter=0;strokeColor=#00FF00;" edge="1" parent="1" target="2V15acwhdToJsvbggmJ_-3">
          <mxGeometry width="50" height="50" relative="1" as="geometry">
            <mxPoint x="270" y="70" as="sourcePoint" />
            <mxPoint x="280" as="targetPoint" />
          </mxGeometry>
        </mxCell>
        <mxCell id="2V15acwhdToJsvbggmJ_-24" value="" style="line;strokeWidth=2;direction=south;html=1;strokeColor=#00FF00;" vertex="1" parent="1">
          <mxGeometry x="406" y="120" width="10" height="20" as="geometry" />
        </mxCell>
        <mxCell id="2V15acwhdToJsvbggmJ_-25" value="" style="line;strokeWidth=2;direction=south;html=1;strokeColor=#00FF00;" vertex="1" parent="1">
          <mxGeometry x="408" y="170" width="10" height="20" as="geometry" />
        </mxCell>
        <mxCell id="2V15acwhdToJsvbggmJ_-26" value="" style="edgeStyle=segmentEdgeStyle;endArrow=none;html=1;curved=0;rounded=0;endSize=8;startSize=8;exitX=0;exitY=0.5;exitDx=0;exitDy=0;exitPerimeter=0;endFill=0;strokeColor=#00FF00;" edge="1" parent="1" source="2V15acwhdToJsvbggmJ_-25">
          <mxGeometry width="50" height="50" relative="1" as="geometry">
            <mxPoint x="500" y="180" as="sourcePoint" />
            <mxPoint x="790" y="50" as="targetPoint" />
            <Array as="points">
              <mxPoint x="790" y="170" />
            </Array>
          </mxGeometry>
        </mxCell>
        <mxCell id="2V15acwhdToJsvbggmJ_-27" value="" style="edgeStyle=segmentEdgeStyle;endArrow=classic;html=1;curved=0;rounded=0;endSize=8;startSize=8;entryX=0.163;entryY=-0.006;entryDx=0;entryDy=0;entryPerimeter=0;strokeColor=#00FF00;" edge="1" parent="1" target="2V15acwhdToJsvbggmJ_-3">
          <mxGeometry width="50" height="50" relative="1" as="geometry">
            <mxPoint x="790" y="50" as="sourcePoint" />
            <mxPoint x="740" as="targetPoint" />
          </mxGeometry>
        </mxCell>
        <mxCell id="2V15acwhdToJsvbggmJ_-30" value="" style="line;strokeWidth=2;direction=south;html=1;strokeColor=#FF0000;" vertex="1" parent="1">
          <mxGeometry x="600" y="220" width="10" height="20" as="geometry" />
        </mxCell>
        <mxCell id="2V15acwhdToJsvbggmJ_-31" value="" style="edgeStyle=segmentEdgeStyle;endArrow=none;html=1;curved=0;rounded=0;endSize=8;startSize=8;exitX=0;exitY=0.5;exitDx=0;exitDy=0;exitPerimeter=0;endFill=0;strokeColor=#FF0000;" edge="1" parent="1" source="2V15acwhdToJsvbggmJ_-30">
          <mxGeometry width="50" height="50" relative="1" as="geometry">
            <mxPoint x="610" y="220" as="sourcePoint" />
            <mxPoint x="800" y="220" as="targetPoint" />
          </mxGeometry>
        </mxCell>
        <mxCell id="2V15acwhdToJsvbggmJ_-32" value="" style="edgeStyle=segmentEdgeStyle;endArrow=none;html=1;curved=0;rounded=0;endSize=8;startSize=8;endFill=0;strokeColor=#FF0000;" edge="1" parent="1">
          <mxGeometry width="50" height="50" relative="1" as="geometry">
            <mxPoint x="799" y="220" as="sourcePoint" />
            <mxPoint x="799" y="30" as="targetPoint" />
          </mxGeometry>
        </mxCell>
        <mxCell id="2V15acwhdToJsvbggmJ_-33" value="" style="edgeStyle=segmentEdgeStyle;endArrow=classic;html=1;curved=0;rounded=0;endSize=8;startSize=8;entryX=0.145;entryY=-0.033;entryDx=0;entryDy=0;entryPerimeter=0;strokeColor=#FF0000;" edge="1" parent="1" target="2V15acwhdToJsvbggmJ_-3">
          <mxGeometry width="50" height="50" relative="1" as="geometry">
            <mxPoint x="800" y="30" as="sourcePoint" />
            <mxPoint x="780" y="-20" as="targetPoint" />
          </mxGeometry>
        </mxCell>
        <mxCell id="2V15acwhdToJsvbggmJ_-34" value="" style="edgeStyle=elbowEdgeStyle;elbow=vertical;endArrow=classic;html=1;curved=0;rounded=0;endSize=8;startSize=8;entryX=0.136;entryY=0.941;entryDx=0;entryDy=0;entryPerimeter=0;strokeColor=#3D03FF;" edge="1" parent="1" target="2V15acwhdToJsvbggmJ_-11">
          <mxGeometry width="50" height="50" relative="1" as="geometry">
            <mxPoint x="330" y="300" as="sourcePoint" />
            <mxPoint x="380" y="250" as="targetPoint" />
          </mxGeometry>
        </mxCell>
        <mxCell id="2V15acwhdToJsvbggmJ_-35" value="" style="edgeStyle=elbowEdgeStyle;elbow=vertical;endArrow=classic;html=1;curved=0;rounded=0;endSize=8;startSize=8;entryX=0.203;entryY=0.941;entryDx=0;entryDy=0;entryPerimeter=0;strokeColor=#3D03FF;" edge="1" parent="1" target="2V15acwhdToJsvbggmJ_-11">
          <mxGeometry width="50" height="50" relative="1" as="geometry">
            <mxPoint x="420" y="300" as="sourcePoint" />
            <mxPoint x="470" y="250" as="targetPoint" />
            <Array as="points">
              <mxPoint x="340" y="270" />
            </Array>
          </mxGeometry>
        </mxCell>
        <mxCell id="2V15acwhdToJsvbggmJ_-36" value="" style="elbow=vertical;endArrow=none;html=1;rounded=0;endSize=8;startSize=8;exitX=0.894;exitY=1.177;exitDx=0;exitDy=0;exitPerimeter=0;endFill=0;edgeStyle=orthogonalEdgeStyle;strokeColor=#FFB303;" edge="1" parent="1" source="2V15acwhdToJsvbggmJ_-14">
          <mxGeometry width="50" height="50" relative="1" as="geometry">
            <mxPoint x="750" y="390" as="sourcePoint" />
            <mxPoint x="100" y="70" as="targetPoint" />
            <Array as="points">
              <mxPoint x="747" y="340" />
              <mxPoint x="100" y="340" />
              <mxPoint x="100" y="270" />
            </Array>
          </mxGeometry>
        </mxCell>
        <mxCell id="2V15acwhdToJsvbggmJ_-37" value="" style="edgeStyle=segmentEdgeStyle;endArrow=classic;html=1;curved=0;rounded=0;endSize=8;startSize=8;entryX=0.126;entryY=-0.099;entryDx=0;entryDy=0;entryPerimeter=0;strokeColor=#FFB303;" edge="1" parent="1" target="2V15acwhdToJsvbggmJ_-3">
          <mxGeometry width="50" height="50" relative="1" as="geometry">
            <mxPoint x="100" y="70" as="sourcePoint" />
            <mxPoint x="150" y="20" as="targetPoint" />
          </mxGeometry>
        </mxCell>
        <mxCell id="2V15acwhdToJsvbggmJ_-38" value="" style="edgeStyle=elbowEdgeStyle;elbow=vertical;endArrow=classic;html=1;curved=0;rounded=0;endSize=8;startSize=8;exitX=0.522;exitY=0.333;exitDx=0;exitDy=0;exitPerimeter=0;entryX=0.161;entryY=1.108;entryDx=0;entryDy=0;entryPerimeter=0;strokeColor=#FF0ADE;" edge="1" parent="1" source="2V15acwhdToJsvbggmJ_-16" target="2V15acwhdToJsvbggmJ_-14">
          <mxGeometry width="50" height="50" relative="1" as="geometry">
            <mxPoint x="360" y="350" as="sourcePoint" />
            <mxPoint x="410" y="300" as="targetPoint" />
            <Array as="points">
              <mxPoint x="370" y="330" />
            </Array>
          </mxGeometry>
        </mxCell>
        <mxCell id="2V15acwhdToJsvbggmJ_-39" value="" style="edgeStyle=elbowEdgeStyle;elbow=vertical;endArrow=none;html=1;curved=0;rounded=0;endSize=8;startSize=8;exitX=0.208;exitY=1.01;exitDx=0;exitDy=0;exitPerimeter=0;endFill=0;strokeColor=#FF3399;" edge="1" parent="1" source="2V15acwhdToJsvbggmJ_-16">
          <mxGeometry width="50" height="50" relative="1" as="geometry">
            <mxPoint x="260" y="490" as="sourcePoint" />
            <mxPoint x="80" y="50" as="targetPoint" />
            <Array as="points">
              <mxPoint x="190" y="390" />
            </Array>
          </mxGeometry>
        </mxCell>
        <mxCell id="2V15acwhdToJsvbggmJ_-40" value="" style="edgeStyle=segmentEdgeStyle;endArrow=classic;html=1;curved=0;rounded=0;endSize=8;startSize=8;strokeColor=#FF3399;" edge="1" parent="1">
          <mxGeometry width="50" height="50" relative="1" as="geometry">
            <mxPoint x="80" y="50" as="sourcePoint" />
            <mxPoint x="210" y="60" as="targetPoint" />
          </mxGeometry>
        </mxCell>
        <mxCell id="2V15acwhdToJsvbggmJ_-41" value="" style="edgeStyle=elbowEdgeStyle;elbow=vertical;endArrow=none;html=1;curved=0;rounded=0;endSize=8;startSize=8;exitX=0.367;exitY=1.067;exitDx=0;exitDy=0;exitPerimeter=0;endFill=0;strokeColor=#FF3399;" edge="1" parent="1" source="2V15acwhdToJsvbggmJ_-16">
          <mxGeometry width="50" height="50" relative="1" as="geometry">
            <mxPoint x="284" y="390" as="sourcePoint" />
            <mxPoint x="70" y="60" as="targetPoint" />
            <Array as="points">
              <mxPoint x="240" y="400" />
            </Array>
          </mxGeometry>
        </mxCell>
        <mxCell id="2V15acwhdToJsvbggmJ_-42" value="" style="edgeStyle=segmentEdgeStyle;endArrow=classic;html=1;curved=0;rounded=0;endSize=8;startSize=8;strokeColor=#FF3399;" edge="1" parent="1">
          <mxGeometry width="50" height="50" relative="1" as="geometry">
            <mxPoint x="70" y="60" as="sourcePoint" />
            <mxPoint x="210" y="40" as="targetPoint" />
            <Array as="points">
              <mxPoint x="70" y="40" />
              <mxPoint x="140" y="40" />
            </Array>
          </mxGeometry>
        </mxCell>
      </root>
    </mxGraphModel>
  </diagram>
</mxfile>
